<svg width="20" height="24" viewBox="0 0 20 24" fill="none" xmlns="http://www.w3.org/2000/svg">
<path d="M0 24H20V8L11.4286 0H0V24Z" fill="#6435A5"/>
<path d="M4.78792 12H2.47363V21.3333H4.04506V17.8267H4.78792C6.35935 17.8267 7.13078 17.0133 7.13078 15.52V14.3067C7.13078 12.8133 6.35935 12 4.78792 12ZM4.78792 13.3333C5.28792 13.3333 5.55935 13.5467 5.55935 14.2133V15.6133C5.55935 16.28 5.28792 16.4933 4.78792 16.4933H4.04506V13.3333H4.78792Z" fill="white"/>
<path d="M7.92843 21.3333H10.4141C11.9856 21.3333 12.757 20.52 12.757 19.0267V14.3067C12.757 12.8133 11.9856 12 10.4141 12H7.92843V21.3333ZM10.3856 13.3333C10.8856 13.3333 11.1856 13.5733 11.1856 14.24V19.0933C11.1856 19.76 10.8856 20 10.3856 20H9.49986V13.3333H10.3856Z" fill="white"/>
<path d="M15.3313 13.3333H17.9171V12H13.7599V21.3333H15.3313V17.48H17.3599V16.1467H15.3313V13.3333Z" fill="white"/>
</svg>
