<svg width="20" height="24" viewBox="0 0 20 24" fill="none" xmlns="http://www.w3.org/2000/svg">
<path d="M0 24H20V8L11.4286 0H0V24Z" fill="#6435A5"/>
<path d="M1.26074 21.3332H3.24931C4.50646 21.3332 5.1236 20.6826 5.1236 19.4879V15.7119C5.1236 14.5172 4.50646 13.8666 3.24931 13.8666H1.26074V21.3332ZM3.22646 14.9332C3.62646 14.9332 3.86646 15.1252 3.86646 15.6586V19.5412C3.86646 20.0746 3.62646 20.2666 3.22646 20.2666H2.51789V14.9332H3.22646Z" fill="white"/>
<path d="M7.08021 15.5839C7.08021 15.0506 7.33164 14.8479 7.73164 14.8479C8.13164 14.8479 8.38306 15.0506 8.38306 15.5839V19.6159C8.38306 20.1492 8.13164 20.3519 7.73164 20.3519C7.33164 20.3519 7.08021 20.1492 7.08021 19.6159V15.5839ZM5.82306 19.5412C5.82306 20.7359 6.49735 21.4186 7.73164 21.4186C8.96592 21.4186 9.64021 20.7359 9.64021 19.5412V15.6586C9.64021 14.4639 8.96592 13.7812 7.73164 13.7812C6.49735 13.7812 5.82306 14.4639 5.82306 15.6586V19.5412Z" fill="white"/>
<path d="M12.9143 18.5492V19.6159C12.9143 20.1492 12.6629 20.3412 12.2629 20.3412C11.8629 20.3412 11.6115 20.1492 11.6115 19.6159V15.5839C11.6115 15.0506 11.8629 14.8479 12.2629 14.8479C12.6629 14.8479 12.9143 15.0506 12.9143 15.5839V16.3839H14.1029V15.6586C14.1029 14.4639 13.4629 13.7812 12.2286 13.7812C10.9943 13.7812 10.3543 14.4639 10.3543 15.6586V19.5412C10.3543 20.7359 10.9943 21.4186 12.2286 21.4186C13.4629 21.4186 14.1029 20.7359 14.1029 19.5412V18.5492H12.9143Z" fill="white"/>
<path d="M17.7715 13.8666L16.8 16.6186L15.8515 13.8666H14.5486L15.8629 17.4932L14.4572 21.3332H15.6343L16.6743 18.3786L17.7029 21.3332H19.0286L17.6229 17.4932L18.9372 13.8666H17.7715Z" fill="white"/>
</svg>
