<svg width="20" height="20" viewBox="0 0 20 20" fill="none" xmlns="http://www.w3.org/2000/svg">
<g clip-path="url(#clip0_293_7448)">
<path d="M14.167 5.00033H18.3337V6.66699H16.667V17.5003C16.667 17.7213 16.5792 17.9333 16.4229 18.0896C16.2666 18.2459 16.0547 18.3337 15.8337 18.3337H4.16699C3.94598 18.3337 3.73402 18.2459 3.57774 18.0896C3.42146 17.9333 3.33366 17.7213 3.33366 17.5003V6.66699H1.66699V5.00033H5.83366V2.50033C5.83366 2.27931 5.92146 2.06735 6.07774 1.91107C6.23402 1.75479 6.44598 1.66699 6.66699 1.66699H13.3337C13.5547 1.66699 13.7666 1.75479 13.9229 1.91107C14.0792 2.06735 14.167 2.27931 14.167 2.50033V5.00033ZM15.0003 6.66699H5.00033V16.667H15.0003V6.66699ZM11.1787 11.667L12.652 13.1403L11.4737 14.3187L10.0003 12.8453L8.52699 14.3187L7.34866 13.1403L8.82199 11.667L7.34866 10.1937L8.52699 9.01533L10.0003 10.4887L11.4737 9.01533L12.652 10.1937L11.1787 11.667ZM7.50033 3.33366V5.00033H12.5003V3.33366H7.50033Z" fill="#8A8996"/>
</g>
<defs>
<clipPath id="clip0_293_7448">
<rect width="20" height="20" fill="white"/>
</clipPath>
</defs>
</svg>
