<svg width="18" height="24" viewBox="0 0 18 24" fill="none" xmlns="http://www.w3.org/2000/svg">
<g clip-path="url(#clip0_376_1990)">
<path d="M12.75 6.375H16.5V8.25H15V20.4375C15 20.6861 14.921 20.9246 14.7803 21.1004C14.6397 21.2762 14.4489 21.375 14.25 21.375H3.75C3.55109 21.375 3.36032 21.2762 3.21967 21.1004C3.07902 20.9246 3 20.6861 3 20.4375V8.25H1.5V6.375H5.25V3.5625C5.25 3.31386 5.32902 3.0754 5.46967 2.89959C5.61032 2.72377 5.80109 2.625 6 2.625H12C12.1989 2.625 12.3897 2.72377 12.5303 2.89959C12.671 3.0754 12.75 3.31386 12.75 3.5625V6.375ZM13.5 8.25H4.5V19.5H13.5V8.25ZM10.0605 13.875L11.3865 15.5325L10.326 16.8581L9 15.2006L7.674 16.8581L6.6135 15.5325L7.9395 13.875L6.6135 12.2175L7.674 10.8919L9 12.5494L10.326 10.8919L11.3865 12.2175L10.0605 13.875ZM6.75 4.5V6.375H11.25V4.5H6.75Z" fill="white"/>
</g>
<defs>
<clipPath id="clip0_376_1990">
<rect width="18" height="22.5" fill="white" transform="translate(0 0.75)"/>
</clipPath>
</defs>
</svg>
