<svg width="19" height="18" viewBox="0 0 19 18" fill="none" xmlns="http://www.w3.org/2000/svg">
<g opacity="0.5" clip-path="url(#clip0_272_9259)">
<path d="M7.14441 8.0115C7.85202 9.24786 8.88152 10.2717 10.1247 10.9755L10.7913 10.047C10.8985 9.8977 11.057 9.79266 11.2368 9.75175C11.4166 9.71084 11.6053 9.7369 11.7671 9.825C12.8337 10.4047 14.0115 10.7533 15.2232 10.848C15.4123 10.8629 15.5888 10.9482 15.7175 11.0867C15.8463 11.2253 15.9177 11.4071 15.9177 11.5957V14.9423C15.9178 15.1279 15.8485 15.3071 15.7234 15.4449C15.5983 15.5828 15.4263 15.6696 15.2405 15.6885C14.8409 15.7297 14.4382 15.75 14.0324 15.75C7.57727 15.75 2.34375 10.545 2.34375 4.125C2.34375 3.7215 2.36411 3.321 2.40559 2.9235C2.42463 2.73877 2.5119 2.56764 2.65051 2.44323C2.78912 2.31881 2.96921 2.24996 3.15593 2.25H6.52076C6.71047 2.24998 6.89321 2.32106 7.03256 2.44909C7.17191 2.57711 7.25762 2.75267 7.27261 2.94075C7.3678 4.14584 7.71835 5.31726 8.30121 6.378C8.3898 6.53892 8.416 6.72656 8.37487 6.9054C8.33373 7.08424 8.22812 7.24188 8.078 7.3485L7.14441 8.0115ZM5.24255 7.51875L6.67536 6.501C6.26873 5.62807 5.99013 4.70163 5.8481 3.75H3.85951C3.85499 3.8745 3.85272 3.99975 3.85272 4.125C3.85197 9.717 8.40981 14.25 14.0324 14.25C14.1584 14.25 14.2843 14.2477 14.4095 14.2425V12.2648C13.4527 12.1235 12.5211 11.8464 11.6434 11.442L10.6201 12.867C10.2081 12.7078 9.80793 12.5198 9.42258 12.3045L9.37884 12.2797C7.89971 11.4425 6.67481 10.2243 5.83301 8.75325L5.80813 8.70975C5.59163 8.32649 5.40263 7.9285 5.24255 7.51875Z" fill="#6536A5"/>
</g>
<defs>
<clipPath id="clip0_272_9259">
<rect width="18.0986" height="18" fill="white" transform="translate(0.0820312)"/>
</clipPath>
</defs>
</svg>
