<svg width="36" height="36" viewBox="0 0 36 36" fill="none" xmlns="http://www.w3.org/2000/svg">
<g clip-path="url(#clip0_272_9101)">
<path d="M4.5 19.5004H13.5V16.5004H4.5V2.7694C4.50002 2.63907 4.53401 2.511 4.5986 2.39781C4.66319 2.28461 4.75617 2.19021 4.86836 2.12389C4.98056 2.05757 5.1081 2.02163 5.23841 2.01962C5.36872 2.01761 5.49731 2.04958 5.6115 2.1124L33.3045 17.3434C33.4221 17.4081 33.5201 17.5033 33.5884 17.6188C33.6567 17.7344 33.6928 17.8662 33.6928 18.0004C33.6928 18.1346 33.6567 18.2664 33.5884 18.382C33.5201 18.4975 33.4221 18.5927 33.3045 18.6574L5.6115 33.8884C5.49731 33.9512 5.36872 33.9832 5.23841 33.9812C5.1081 33.9792 4.98056 33.9432 4.86836 33.8769C4.75617 33.8106 4.66319 33.7162 4.5986 33.603C4.53401 33.4898 4.50002 33.3617 4.5 33.2314V19.5004Z" fill="#6435A5"/>
</g>
<defs>
<clipPath id="clip0_272_9101">
<rect width="36" height="36" fill="white"/>
</clipPath>
</defs>
</svg>
