<svg width="18" height="18" viewBox="0 0 18 18" fill="none" xmlns="http://www.w3.org/2000/svg">
<g clip-path="url(#clip0_134_907)">
<path d="M10.5 7.5V10.5H7.5V7.5H10.5ZM12 7.5H15.75V10.5H12V7.5ZM10.5 15.75H7.5V12H10.5V15.75ZM12 15.75V12H15.75V15C15.75 15.1989 15.671 15.3897 15.5303 15.5303C15.3897 15.671 15.1989 15.75 15 15.75H12ZM10.5 2.25V6H7.5V2.25H10.5ZM12 2.25H15C15.1989 2.25 15.3897 2.32902 15.5303 2.46967C15.671 2.61032 15.75 2.80109 15.75 3V6H12V2.25ZM6 7.5V10.5H2.25V7.5H6ZM6 15.75H3C2.80109 15.75 2.61032 15.671 2.46967 15.5303C2.32902 15.3897 2.25 15.1989 2.25 15V12H6V15.75ZM6 2.25V6H2.25V3C2.25 2.80109 2.32902 2.61032 2.46967 2.46967C2.61032 2.32902 2.80109 2.25 3 2.25H6Z" fill="white"/>
</g>
<defs>
<clipPath id="clip0_134_907">
<rect width="18" height="18" fill="white"/>
</clipPath>
</defs>
</svg>
