<svg width="42" height="42" viewBox="0 0 42 42" fill="none" xmlns="http://www.w3.org/2000/svg">
<g clip-path="url(#clip0_259_2527)">
<path d="M36.75 33.25H40.25V36.75H1.75V33.25H5.25V7C5.25 6.53587 5.43437 6.09075 5.76256 5.76256C6.09075 5.43437 6.53587 5.25 7 5.25H24.5C24.9641 5.25 25.4092 5.43437 25.7374 5.76256C26.0656 6.09075 26.25 6.53587 26.25 7V33.25H29.75V15.75H35C35.4641 15.75 35.9092 15.9344 36.2374 16.2626C36.5656 16.5908 36.75 17.0359 36.75 17.5V33.25ZM12.25 19.25V22.75H19.25V19.25H12.25ZM12.25 12.25V15.75H19.25V12.25H12.25Z" fill="white"/>
</g>
<defs>
<clipPath id="clip0_259_2527">
<rect width="42" height="42" fill="white"/>
</clipPath>
</defs>
</svg>
