<svg width="24" height="24" viewBox="0 0 24 24" fill="none" xmlns="http://www.w3.org/2000/svg">
<g clip-path="url(#clip0_205_1585)">
<path d="M17.8807 19.2966C16.1219 20.4121 14.0814 21.0029 11.9987 20.9996C6.60669 20.9996 2.12069 17.1196 1.17969 11.9996C1.60972 9.6703 2.78132 7.54247 4.51969 5.93358L1.39069 2.80758L2.80569 1.39258L22.6047 21.1926L21.1897 22.6066L17.8797 19.2966H17.8807ZM5.93369 7.34958C4.57469 8.58517 3.628 10.2084 3.22169 11.9996C3.53398 13.366 4.16095 14.6407 5.05269 15.7222C5.94443 16.8036 7.07631 17.662 8.35824 18.2289C9.64017 18.7958 11.0367 19.0556 12.4368 18.9877C13.8368 18.9198 15.2017 18.5259 16.4227 17.8376L14.3947 15.8096C13.5314 16.3534 12.5089 16.5877 11.4949 16.474C10.481 16.3604 9.53573 15.9055 8.81426 15.184C8.09279 14.4625 7.63791 13.5173 7.52425 12.5033C7.41058 11.4894 7.64487 10.4669 8.18869 9.60358L5.93369 7.34958ZM12.9127 14.3276L9.67069 11.0856C9.49275 11.5385 9.45088 12.0335 9.55019 12.5099C9.64951 12.9863 9.8857 13.4234 10.2298 13.7675C10.5739 14.1116 11.011 14.3478 11.4873 14.4471C11.9637 14.5464 12.4588 14.5045 12.9117 14.3266L12.9127 14.3276ZM20.8057 16.5916L19.3747 15.1616C20.0432 14.2089 20.5191 13.1348 20.7757 11.9996C20.5039 10.8093 19.993 9.68672 19.2738 8.70007C18.5547 7.71342 17.6425 6.88331 16.5926 6.26018C15.5426 5.63706 14.377 5.23395 13.1664 5.07534C11.9559 4.91674 10.7257 5.00596 9.55069 5.33758L7.97269 3.75958C9.21969 3.26958 10.5787 2.99958 11.9987 2.99958C17.3907 2.99958 21.8767 6.87958 22.8177 11.9996C22.5113 13.6653 21.8225 15.2372 20.8057 16.5916ZM11.7217 7.50758C12.3582 7.46824 12.9958 7.56464 13.5922 7.7904C14.1887 8.01615 14.7303 8.36609 15.1812 8.81703C15.6322 9.26797 15.9821 9.8096 16.2079 10.406C16.4336 11.0025 16.53 11.6401 16.4907 12.2766L11.7207 7.50758H11.7217Z" fill="#8A8996"/>
</g>
<defs>
<clipPath id="clip0_205_1585">
<rect width="24" height="24" fill="white"/>
</clipPath>
</defs>
</svg>
