<svg width="20" height="24" viewBox="0 0 20 24" fill="none" xmlns="http://www.w3.org/2000/svg">
<path d="M0 24H20V8L11.4286 0H0V24Z" fill="#6435A5"/>
<path d="M2.06836 21.3333H4.55407C6.1255 21.3333 6.89693 20.52 6.89693 19.0266V14.3066C6.89693 12.8133 6.1255 12 4.55407 12H2.06836V21.3333ZM4.5255 13.3333C5.0255 13.3333 5.3255 13.5733 5.3255 14.24V19.0933C5.3255 19.76 5.0255 20 4.5255 20H3.63979V13.3333H4.5255Z" fill="white"/>
<path d="M9.34269 14.1466C9.34269 13.48 9.65698 13.2266 10.157 13.2266C10.657 13.2266 10.9713 13.48 10.9713 14.1466V19.1866C10.9713 19.8533 10.657 20.1066 10.157 20.1066C9.65698 20.1066 9.34269 19.8533 9.34269 19.1866V14.1466ZM7.77126 19.0933C7.77126 20.5866 8.61412 21.44 10.157 21.44C11.6998 21.44 12.5427 20.5866 12.5427 19.0933V14.24C12.5427 12.7466 11.6998 11.8933 10.157 11.8933C8.61412 11.8933 7.77126 12.7466 7.77126 14.24V19.0933Z" fill="white"/>
<path d="M16.6353 17.8533V19.1866C16.6353 19.8533 16.321 20.0933 15.821 20.0933C15.321 20.0933 15.0068 19.8533 15.0068 19.1866V14.1466C15.0068 13.48 15.321 13.2266 15.821 13.2266C16.321 13.2266 16.6353 13.48 16.6353 14.1466V15.1466H18.121V14.24C18.121 12.7466 17.321 11.8933 15.7782 11.8933C14.2353 11.8933 13.4353 12.7466 13.4353 14.24V19.0933C13.4353 20.5866 14.2353 21.44 15.7782 21.44C17.321 21.44 18.121 20.5866 18.121 19.0933V17.8533H16.6353Z" fill="white"/>
</svg>
