<svg width="20" height="24" viewBox="0 0 20 24" fill="none" xmlns="http://www.w3.org/2000/svg">
<path d="M0 24H20V8L11.4286 0H0V24Z" fill="#6435A5"/>
<path d="M3.73954 12V13.3333H6.58239L3.59668 20.0267V21.3333H8.19668V20H5.21097L8.19668 13.3067V12H3.73954Z" fill="white"/>
<path d="M9.12693 21.3333H10.6984V12H9.12693V21.3333Z" fill="white"/>
<path d="M14.1616 12H11.8473V21.3333H13.4188V17.8267H14.1616C15.7331 17.8267 16.5045 17.0133 16.5045 15.52V14.3067C16.5045 12.8133 15.7331 12 14.1616 12ZM14.1616 13.3333C14.6616 13.3333 14.9331 13.5467 14.9331 14.2133V15.6133C14.9331 16.28 14.6616 16.4933 14.1616 16.4933H13.4188V13.3333H14.1616Z" fill="white"/>
</svg>
