<svg width="20" height="24" viewBox="0 0 20 24" fill="none" xmlns="http://www.w3.org/2000/svg">
<path d="M0 24H20V8L11.4286 0H0V24Z" fill="#6435A5"/>
<path d="M6.80173 21.3333C6.64459 20.9867 6.6303 20.6533 6.6303 20.2V18.76C6.6303 17.7867 6.37316 17.08 5.58744 16.7733C6.28744 16.4667 6.61602 15.84 6.61602 14.88V14.1467C6.61602 12.7067 5.91602 12 4.28744 12H1.91602V21.3333H3.48744V17.5333H4.0303C4.74459 17.5333 5.05887 17.8533 5.05887 18.72V20.1867C5.05887 20.9467 5.11602 21.0933 5.20173 21.3333H6.80173ZM4.24459 13.3333C4.80173 13.3333 5.04459 13.6267 5.04459 14.2933V15.2133C5.04459 15.96 4.68744 16.2 4.10173 16.2H3.48744V13.3333H4.24459Z" fill="white"/>
<path d="M11.1495 12H8.8495L7.2495 21.3333H8.69235L8.96378 19.64H10.8924L11.1638 21.3333H12.7495L11.1495 12ZM9.92093 13.6533L10.6781 18.3733H9.16378L9.92093 13.6533Z" fill="white"/>
<path d="M18.367 21.3333C18.2099 20.9867 18.1956 20.6533 18.1956 20.2V18.76C18.1956 17.7867 17.9384 17.08 17.1527 16.7733C17.8527 16.4667 18.1813 15.84 18.1813 14.88V14.1467C18.1813 12.7067 17.4813 12 15.8527 12H13.4813V21.3333H15.0527V17.5333H15.5956C16.3099 17.5333 16.6242 17.8533 16.6242 18.72V20.1867C16.6242 20.9467 16.6813 21.0933 16.767 21.3333H18.367ZM15.8099 13.3333C16.367 13.3333 16.6099 13.6267 16.6099 14.2933V15.2133C16.6099 15.96 16.2527 16.2 15.667 16.2H15.0527V13.3333H15.8099Z" fill="white"/>
</svg>
