<svg width="20" height="24" viewBox="0 0 20 24" fill="none" xmlns="http://www.w3.org/2000/svg">
<path d="M0 24H20V8L11.4286 0H0V24Z" fill="#6435A5"/>
<path d="M2.80371 21.3333C3.06085 21.36 3.27514 21.36 3.56085 21.36C4.74657 21.36 5.818 20.88 5.818 19.0133V12H4.24657V19.12C4.24657 19.84 3.84657 20.0133 3.34657 20.0133C3.17514 20.0133 2.97514 20.0133 2.80371 20V21.3333Z" fill="white"/>
<path d="M9.2017 12H6.88742V21.3333H8.45885V17.8266H9.2017C10.7731 17.8266 11.5446 17.0133 11.5446 15.52V14.3066C11.5446 12.8133 10.7731 12 9.2017 12ZM9.2017 13.3333C9.7017 13.3333 9.97313 13.5466 9.97313 14.2133V15.6133C9.97313 16.28 9.7017 16.4933 9.2017 16.4933H8.45885V13.3333H9.2017Z" fill="white"/>
<path d="M14.6994 17.4666H15.4136V19.1866C15.4136 19.8533 15.0994 20.0933 14.5994 20.0933C14.0994 20.0933 13.7851 19.8533 13.7851 19.1866V14.1466C13.7851 13.48 14.0994 13.2266 14.5994 13.2266C15.0994 13.2266 15.4136 13.48 15.4136 14.1466V15.1466H16.8994V14.24C16.8994 12.7466 16.0994 11.8933 14.5565 11.8933C13.0136 11.8933 12.2136 12.7466 12.2136 14.24V19.0933C12.2136 20.5866 13.0136 21.44 14.5565 21.44C16.0994 21.44 16.8994 20.5866 16.8994 19.0933V16.1333H14.6994V17.4666Z" fill="white"/>
</svg>
