<svg width="2000" height="478" viewBox="0 0 2000 478" fill="none" xmlns="http://www.w3.org/2000/svg">
<g clip-path="url(#clip0_40_2)">
<path d="M0 152.55L249 0L498 152.55V192.89L249 40.33L0 192.89V152.55Z" fill="#5E39A2"/>
<path fill-rule="evenodd" clip-rule="evenodd" d="M249.001 60.2598L454.781 186.34V473.65H249.281L398.491 382.51L363.491 325.15L211.521 418L187.211 378.21L267.831 328.96L232.831 271.6L152.221 320.85L128.221 281.57L280.101 188.72L245.101 131.36L80.4907 231.89L80.6907 232.21L43.2207 255.1V186.34L249.001 60.2598ZM43.2207 295.78V473.65H151.871L43.2207 295.78Z" fill="#5E39A2"/>
<path d="M877.16 193.93V258.41H698.71V298.53H871.54V365.64H698.71V408.38H879.41V472.86H609.85V193.93H877.16Z" fill="#5E39A2"/>
<path d="M1033.5 472.86L900.41 193.93H1004.26L1092 392.63L1179.73 193.93H1274.96L1147.47 472.86H1033.5Z" fill="#5E39A2"/>
<path d="M1456.39 189.43C1479.63 189.43 1500.06 191.43 1517.69 195.43C1535.32 199.43 1550.56 204.927 1563.43 211.92C1576.29 218.92 1586.96 226.984 1595.43 236.11C1603.58 244.726 1610.48 254.452 1615.91 265C1620.95 274.889 1624.61 285.425 1626.78 296.31C1628.85 306.412 1629.92 316.69 1630 327V338.25C1630 353.004 1627.5 368.5 1622.5 384.74C1617.5 400.98 1608.57 415.98 1595.7 429.74C1582.82 443.48 1565.14 454.85 1542.65 463.85C1520.16 472.85 1491.42 477.35 1456.42 477.35H1439.55C1416.3 477.35 1395.87 475.287 1378.25 471.16C1360.63 467.034 1345.38 461.41 1332.51 454.29C1319.64 447.17 1308.97 438.987 1300.51 429.74C1284.67 412.694 1273.84 391.612 1269.2 368.81C1267.14 358.756 1266.07 348.523 1266.02 338.26V327C1266.06 316.611 1267.13 306.251 1269.2 296.07C1271.37 285.271 1275 274.818 1280 265C1285.41 254.464 1292.29 244.747 1300.43 236.14C1308.92 227.02 1319.58 218.957 1332.43 211.95C1345.28 204.944 1360.52 199.447 1378.17 195.46C1395.79 191.46 1416.22 189.46 1439.47 189.46L1456.39 189.43ZM1536.62 330.43C1536.54 322.383 1535.4 314.381 1533.24 306.63C1530.86 298.011 1526.42 290.098 1520.31 283.57C1513.94 276.584 1504.94 270.837 1493.31 266.33C1481.68 261.824 1466.62 259.574 1448.13 259.58C1429.39 259.58 1414.27 261.83 1402.77 266.33C1391.27 270.83 1382.27 276.577 1375.77 283.57C1369.56 290.058 1365.06 297.979 1362.65 306.63C1360.49 314.382 1359.35 322.383 1359.28 330.43V335.31C1359.37 343.435 1360.56 351.51 1362.84 359.31C1365.37 368.099 1370.01 376.14 1376.34 382.74C1382.96 389.867 1392.02 395.74 1403.52 400.36C1415.02 404.98 1429.89 407.294 1448.13 407.3C1466.62 407.3 1481.68 404.987 1493.31 400.36C1504.94 395.734 1513.94 389.86 1520.31 382.74C1526.43 376.078 1530.87 368.043 1533.24 359.31C1535.4 351.49 1536.53 343.423 1536.62 335.31V330.43Z" fill="#5E39A2"/>
<path d="M1752.19 302.65V472.86H1664.83V193.93H1756.31L1913 361.14V193.93H2000V472.86H1913.4L1752.19 302.65Z" fill="#5E39A2"/>
</g>
<defs>
<clipPath id="clip0_40_2">
<rect width="2000" height="477.36" fill="white"/>
</clipPath>
</defs>
</svg>
