<svg xmlns="http://www.w3.org/2000/svg" viewBox="0 0 2000 477.36"><defs><style>.cls-1,.cls-2{fill:#fff;}.cls-2{fill-rule:evenodd;}</style></defs><g id="Слой_2" data-name="Слой 2"><g id="Слой_1-2" data-name="Слой 1"><path class="cls-1" d="M0,152.55,249,0,498,152.55v40.34L249,40.33,0,192.89Z"/><path class="cls-2" d="M249,60.26,454.78,186.34V473.65H249.28l149.21-91.14-35-57.36L211.52,418l-24.31-39.79,80.62-49.25-35-57.36-80.61,49.25-24-39.28L280.1,188.72l-35-57.36L80.49,231.89l.2.32L43.22,255.1V186.34ZM43.22,295.78V473.65H151.87Z"/><path class="cls-1" d="M877.16,193.93v64.48H698.71v40.12H871.54v67.11H698.71v42.74h180.7v64.48H609.85V193.93Z"/><path class="cls-1" d="M1033.5,472.86,900.41,193.93h103.85L1092,392.63l87.73-198.7h95.23L1147.47,472.86Z"/><path class="cls-1" d="M1456.39,189.43q34.86,0,61.3,6t45.74,16.49q19.29,10.5,32,24.19A125.77,125.77,0,0,1,1615.91,265a121.11,121.11,0,0,1,10.87,31.31A159,159,0,0,1,1630,327v11.25q0,22.13-7.5,46.49t-26.8,45q-19.32,20.61-53.05,34.11t-86.23,13.5h-16.87q-34.87,0-61.3-6.19t-45.74-16.87q-19.31-10.68-32-24.55a126.59,126.59,0,0,1-31.31-60.93,156.06,156.06,0,0,1-3.18-30.55V327a158,158,0,0,1,3.18-30.93A121.18,121.18,0,0,1,1280,265a125.46,125.46,0,0,1,20.43-28.86q12.73-13.68,32-24.19t45.74-16.49q26.43-6,61.3-6Zm80.23,141a91.82,91.82,0,0,0-3.38-23.8,55.3,55.3,0,0,0-12.93-23.06q-9.55-10.48-27-17.24t-45.18-6.75q-28.11,0-45.36,6.75t-27,17.24a54.46,54.46,0,0,0-13.12,23.06,91.79,91.79,0,0,0-3.37,23.8v4.88a89,89,0,0,0,3.56,24,56.43,56.43,0,0,0,13.5,23.43q9.93,10.69,27.18,17.62t44.61,6.94q27.73,0,45.18-6.94t27-17.62a56.52,56.52,0,0,0,12.93-23.43,93.86,93.86,0,0,0,3.38-24Z"/><path class="cls-1" d="M1752.19,302.65V472.86h-87.36V193.93h91.48L1913,361.14V193.93h87V472.86h-86.6Z"/></g></g></svg>