<svg width="18" height="18" viewBox="0 0 18 18" fill="none" xmlns="http://www.w3.org/2000/svg">
<g clip-path="url(#clip0_158_957)">
<path d="M9.00075 3.39673C10.7625 1.81498 13.485 1.86748 15.1823 3.56773C16.8788 5.26873 16.9373 7.97774 15.3593 9.74474L8.99925 16.1137L2.64075 9.74474C1.06275 7.97774 1.122 5.26424 2.81775 3.56773C4.5165 1.86974 7.23375 1.81273 9.00075 3.39673V3.39673ZM14.1203 4.62749C12.9953 3.50099 11.1803 3.45524 10.0028 4.51274L9.0015 5.41124L7.9995 4.51349C6.81825 3.45449 5.007 3.50098 3.879 4.62898C2.7615 5.74648 2.70525 7.53524 3.735 8.71724L9 13.9905L14.265 8.71798C15.2955 7.53523 15.2393 5.74874 14.1203 4.62749V4.62749Z" fill="#6435A5"/>
</g>
<defs>
<clipPath id="clip0_158_957">
<rect width="18" height="18" fill="white"/>
</clipPath>
</defs>
</svg>
