<svg width="18" height="24" viewBox="0 0 18 24" fill="none" xmlns="http://www.w3.org/2000/svg">
<g clip-path="url(#clip0_376_1996)">
<path d="M13.4125 18.8416C12.0934 19.8875 10.563 20.4413 9.00097 20.4382C4.95697 20.4382 1.59247 16.8007 0.886719 12.0007C1.20924 9.817 2.08794 7.82217 3.39172 6.31383L1.04497 3.3832L2.10622 2.05664L16.9555 20.6191L15.8942 21.9448L13.4117 18.8416H13.4125ZM4.45222 7.64133C3.43297 8.79969 2.72296 10.3214 2.41822 12.0007C2.65244 13.2818 3.12267 14.4768 3.79147 15.4906C4.46028 16.5045 5.30919 17.3092 6.27063 17.8407C7.23208 18.3722 8.2795 18.6158 9.32954 18.5521C10.3796 18.4884 11.4032 18.1192 12.319 17.4738L10.798 15.5726C10.1505 16.0824 9.38362 16.3021 8.62315 16.1955C7.86268 16.0889 7.15375 15.6625 6.61265 14.9861C6.07154 14.3097 5.73039 13.4236 5.64514 12.473C5.55989 11.5224 5.73561 10.5638 6.14347 9.75445L4.45222 7.64133ZM9.68647 14.1832L7.25497 11.1438C7.12152 11.5685 7.09011 12.0325 7.1646 12.4792C7.23909 12.9258 7.41623 13.3355 7.67431 13.6581C7.93238 13.9807 8.26017 14.2021 8.61746 14.2952C8.97475 14.3883 9.34602 14.3491 9.68572 14.1823L9.68647 14.1832ZM15.6062 16.3057L14.533 14.9651C15.0343 14.0719 15.3913 13.0649 15.5837 12.0007C15.3799 10.8848 14.9967 9.8324 14.4573 8.90742C13.918 7.98243 13.2338 7.2042 12.4464 6.62002C11.6589 6.03584 10.7847 5.65792 9.87677 5.50923C8.96885 5.36054 8.04622 5.44418 7.16497 5.75508L5.98147 4.2757C6.91672 3.81633 7.93597 3.5632 9.00097 3.5632C13.045 3.5632 16.4095 7.2007 17.1152 12.0007C16.8854 13.5623 16.3689 15.0359 15.6062 16.3057ZM8.79322 7.78945C9.2706 7.75258 9.7488 7.84295 10.1961 8.05459C10.6434 8.26624 11.0497 8.59431 11.3879 9.01706C11.7261 9.43982 11.9885 9.9476 12.1579 10.5068C12.3272 11.0659 12.3995 11.6637 12.37 12.2604L8.79247 7.78945H8.79322Z" fill="white"/>
</g>
<defs>
<clipPath id="clip0_376_1996">
<rect width="18" height="22.5" fill="white" transform="translate(0 0.75)"/>
</clipPath>
</defs>
</svg>
