<svg width="26" height="29" viewBox="0 0 26 29" fill="none" xmlns="http://www.w3.org/2000/svg">
<path d="M20.955 20.7049L13 28.6599L5.04501 20.7049C3.47168 19.1316 2.40023 17.127 1.96616 14.9447C1.53209 12.7624 1.75488 10.5004 2.60637 8.44478C3.45786 6.38912 4.8998 4.63212 6.74985 3.39596C8.5999 2.1598 10.775 1.5 13 1.5C15.225 1.5 17.4001 2.1598 19.2502 3.39596C21.1002 4.63212 22.5421 6.38912 23.3936 8.44478C24.2451 10.5004 24.4679 12.7624 24.0338 14.9447C23.5998 17.127 22.5283 19.1316 20.955 20.7049ZM13 15.2499C13.663 15.2499 14.2989 14.9865 14.7678 14.5177C15.2366 14.0488 15.5 13.4129 15.5 12.7499C15.5 12.0869 15.2366 11.451 14.7678 10.9821C14.2989 10.5133 13.663 10.2499 13 10.2499C12.337 10.2499 11.7011 10.5133 11.2322 10.9821C10.7634 11.451 10.5 12.0869 10.5 12.7499C10.5 13.4129 10.7634 14.0488 11.2322 14.5177C11.7011 14.9865 12.337 15.2499 13 15.2499Z" fill="#6435A5" stroke="white" stroke-width="2"/>
</svg>
