<svg width="36" height="36" viewBox="0 0 36 36" fill="none" xmlns="http://www.w3.org/2000/svg">
<g clip-path="url(#clip0_85_743)">
<path d="M18 31.3499L25.425 23.9249C26.8934 22.4564 27.8933 20.5855 28.2983 18.5487C28.7034 16.5119 28.4954 14.4008 27.7006 12.4822C26.9059 10.5637 25.5601 8.92384 23.8334 7.77014C22.1067 6.61643 20.0767 6.00064 18 6.00064C15.9233 6.00064 13.8933 6.61643 12.1666 7.77014C10.4399 8.92384 9.09413 10.5637 8.29937 12.4822C7.50462 14.4008 7.29662 16.5119 7.70168 18.5487C8.10674 20.5855 9.10666 22.4564 10.575 23.9249L18 31.3499ZM18 35.5919L8.45401 26.0459C6.56601 24.1579 5.28028 21.7524 4.75939 19.1337C4.23851 16.5149 4.50586 13.8005 5.52765 11.3337C6.54944 8.86694 8.27977 6.75854 10.4998 5.27515C12.7199 3.79176 15.33 3 18 3C20.67 3 23.2801 3.79176 25.5002 5.27515C27.7202 6.75854 29.4506 8.86694 30.4724 11.3337C31.4942 13.8005 31.7615 16.5149 31.2406 19.1337C30.7197 21.7524 29.434 24.1579 27.546 26.0459L18 35.5919ZM18 19.4999C18.7957 19.4999 19.5587 19.1838 20.1213 18.6212C20.6839 18.0586 21 17.2955 21 16.4999C21 15.7042 20.6839 14.9412 20.1213 14.3786C19.5587 13.816 18.7957 13.4999 18 13.4999C17.2044 13.4999 16.4413 13.816 15.8787 14.3786C15.3161 14.9412 15 15.7042 15 16.4999C15 17.2955 15.3161 18.0586 15.8787 18.6212C16.4413 19.1838 17.2044 19.4999 18 19.4999ZM18 22.4999C16.4087 22.4999 14.8826 21.8677 13.7574 20.7425C12.6321 19.6173 12 18.0912 12 16.4999C12 14.9086 12.6321 13.3825 13.7574 12.2572C14.8826 11.132 16.4087 10.4999 18 10.4999C19.5913 10.4999 21.1174 11.132 22.2426 12.2572C23.3679 13.3825 24 14.9086 24 16.4999C24 18.0912 23.3679 19.6173 22.2426 20.7425C21.1174 21.8677 19.5913 22.4999 18 22.4999Z" fill="#6435A5" fill-opacity="0.5"/>
</g>
<defs>
<clipPath id="clip0_85_743">
<rect width="36" height="36" fill="white"/>
</clipPath>
</defs>
</svg>
