<svg width="36" height="36" viewBox="0 0 36 36" fill="none" xmlns="http://www.w3.org/2000/svg">
<g clip-path="url(#clip0_85_687)">
<path d="M18 33C9.7155 33 3 26.2845 3 18C3 9.7155 9.7155 3 18 3C26.2845 3 33 9.7155 33 18C33 26.2845 26.2845 33 18 33ZM14.565 29.5005C13.0851 26.3615 12.2278 22.9653 12.0405 19.5H6.093C6.38488 21.8083 7.34088 23.9822 8.84485 25.7576C10.3488 27.5329 12.336 28.8332 14.565 29.5005ZM15.045 19.5C15.2715 23.1585 16.317 26.595 18 29.628C19.7285 26.5148 20.7382 23.0542 20.955 19.5H15.045ZM29.907 19.5H23.9595C23.7722 22.9653 22.9149 26.3615 21.435 29.5005C23.664 28.8332 25.6512 27.5329 27.1551 25.7576C28.6591 23.9822 29.6151 21.8083 29.907 19.5ZM6.093 16.5H12.0405C12.2278 13.0347 13.0851 9.63853 14.565 6.4995C12.336 7.16682 10.3488 8.46713 8.84485 10.2424C7.34088 12.0178 6.38488 14.1917 6.093 16.5ZM15.0465 16.5H20.9535C20.7371 12.9459 19.728 9.4853 18 6.372C16.2715 9.48517 15.2618 12.9458 15.045 16.5H15.0465ZM21.435 6.4995C22.9149 9.63853 23.7722 13.0347 23.9595 16.5H29.907C29.6151 14.1917 28.6591 12.0178 27.1551 10.2424C25.6512 8.46713 23.664 7.16682 21.435 6.4995Z" fill="#6435A5" fill-opacity="0.5"/>
</g>
<defs>
<clipPath id="clip0_85_687">
<rect width="36" height="36" fill="white"/>
</clipPath>
</defs>
</svg>
