<svg width="36" height="36" viewBox="0 0 36 36" fill="none" xmlns="http://www.w3.org/2000/svg">
<g clip-path="url(#clip0_85_719)">
<path d="M22.5 6H7.5V30H28.5V12H22.5V6ZM4.5 4.488C4.5 3.666 5.1705 3 5.9985 3H24L31.5 10.5V31.4895C31.5014 31.6865 31.464 31.8818 31.3898 32.0643C31.3157 32.2468 31.2064 32.413 31.0681 32.5532C30.9298 32.6935 30.7652 32.8052 30.5837 32.8818C30.4023 32.9585 30.2075 32.9986 30.0105 33H5.9895C5.59557 32.9973 5.21853 32.8396 4.93983 32.5612C4.66113 32.2828 4.50314 31.9059 4.5 31.512V4.488ZM20.2935 21.669C19.0355 22.404 17.5531 22.6565 16.1227 22.3792C14.6923 22.1019 13.4116 21.3139 12.5193 20.1621C11.6271 19.0102 11.1842 17.5732 11.2733 16.1189C11.3624 14.6646 11.9773 13.2923 13.0035 12.258C14.0362 11.2255 15.4099 10.6051 16.8673 10.513C18.3247 10.4209 19.7656 10.8634 20.9201 11.7577C22.0745 12.6519 22.8632 13.9365 23.1383 15.3707C23.4134 16.8048 23.1561 18.29 22.4145 19.548L25.7295 22.863L23.6085 24.9855L20.2935 21.6705V21.669ZM19.3665 18.621C19.653 18.3443 19.8816 18.0132 20.0388 17.6472C20.196 17.2812 20.2788 16.8875 20.2823 16.4892C20.2857 16.0909 20.2098 15.6958 20.059 15.3271C19.9081 14.9584 19.6854 14.6235 19.4037 14.3418C19.122 14.0601 18.7871 13.8374 18.4184 13.6865C18.0497 13.5357 17.6546 13.4598 17.2563 13.4632C16.858 13.4667 16.4643 13.5495 16.0983 13.7067C15.7323 13.8639 15.4012 14.0925 15.1245 14.379C14.578 14.9448 14.2756 15.7026 14.2825 16.4892C14.2893 17.2758 14.6048 18.0282 15.161 18.5845C15.7173 19.1407 16.4697 19.4562 17.2563 19.463C18.0429 19.4699 18.8007 19.1675 19.3665 18.621Z" fill="#6435A5" fill-opacity="0.5"/>
</g>
<defs>
<clipPath id="clip0_85_719">
<rect width="36" height="36" fill="white"/>
</clipPath>
</defs>
</svg>
