<svg width="36" height="36" viewBox="0 0 36 36" fill="none" xmlns="http://www.w3.org/2000/svg">
<g clip-path="url(#clip0_85_731)">
<path d="M21 15H15V21H21V15ZM24 15V21H28.5V15H24ZM21 28.5V24H15V28.5H21ZM24 28.5H28.5V24H24V28.5ZM21 7.5H15V12H21V7.5ZM24 7.5V12H28.5V7.5H24ZM12 15H7.5V21H12V15ZM12 28.5V24H7.5V28.5H12ZM12 7.5H7.5V12H12V7.5ZM6 4.5H30C30.3978 4.5 30.7794 4.65804 31.0607 4.93934C31.342 5.22064 31.5 5.60218 31.5 6V30C31.5 30.3978 31.342 30.7794 31.0607 31.0607C30.7794 31.342 30.3978 31.5 30 31.5H6C5.60218 31.5 5.22064 31.342 4.93934 31.0607C4.65804 30.7794 4.5 30.3978 4.5 30V6C4.5 5.60218 4.65804 5.22064 4.93934 4.93934C5.22064 4.65804 5.60218 4.5 6 4.5Z" fill="#6435A5" fill-opacity="0.5"/>
</g>
<defs>
<clipPath id="clip0_85_731">
<rect width="36" height="36" fill="white"/>
</clipPath>
</defs>
</svg>
