<svg width="36" height="36" viewBox="0 0 36 36" fill="none" xmlns="http://www.w3.org/2000/svg">
<g clip-path="url(#clip0_85_707)">
<path d="M30 33H9C7.80653 33 6.66193 32.5259 5.81802 31.682C4.97411 30.8381 4.5 29.6935 4.5 28.5V7.5C4.5 6.30653 4.97411 5.16193 5.81802 4.31802C6.66193 3.47411 7.80653 3 9 3H30C30.3978 3 30.7794 3.15804 31.0607 3.43934C31.342 3.72064 31.5 4.10218 31.5 4.5V31.5C31.5 31.8978 31.342 32.2794 31.0607 32.5607C30.7794 32.842 30.3978 33 30 33ZM28.5 30V27H9C8.60218 27 8.22064 27.158 7.93934 27.4393C7.65804 27.7206 7.5 28.1022 7.5 28.5C7.5 28.8978 7.65804 29.2794 7.93934 29.5607C8.22064 29.842 8.60218 30 9 30H28.5ZM7.5 24.255C7.9695 24.09 8.475 24 9 24H28.5V6H9C8.60218 6 8.22064 6.15804 7.93934 6.43934C7.65804 6.72064 7.5 7.10218 7.5 7.5V24.255ZM18 15C17.2044 15 16.4413 14.6839 15.8787 14.1213C15.3161 13.5587 15 12.7956 15 12C15 11.2044 15.3161 10.4413 15.8787 9.87868C16.4413 9.31607 17.2044 9 18 9C18.7956 9 19.5587 9.31607 20.1213 9.87868C20.6839 10.4413 21 11.2044 21 12C21 12.7956 20.6839 13.5587 20.1213 14.1213C19.5587 14.6839 18.7956 15 18 15ZM13.5 21C13.5 19.8065 13.9741 18.6619 14.818 17.818C15.6619 16.9741 16.8065 16.5 18 16.5C19.1935 16.5 20.3381 16.9741 21.182 17.818C22.0259 18.6619 22.5 19.8065 22.5 21H13.5Z" fill="#6435A5" fill-opacity="0.5"/>
</g>
<defs>
<clipPath id="clip0_85_707">
<rect width="36" height="36" fill="white"/>
</clipPath>
</defs>
</svg>
