<svg width="36" height="36" viewBox="0 0 36 36" fill="none" xmlns="http://www.w3.org/2000/svg">
<g clip-path="url(#clip0_85_699)">
<path d="M4.74303 6.70301C6.48312 4.96261 8.81703 3.94464 11.2764 3.85339C13.7358 3.76214 16.1387 4.60434 18.003 6.21101C19.8657 4.60702 22.2654 3.76576 24.7218 3.85566C27.1783 3.94555 29.5101 4.95997 31.2505 6.69582C32.9909 8.43168 34.0115 10.7609 34.1078 13.217C34.2041 15.6732 33.3691 18.0752 31.77 19.942L20.1225 31.627C19.5874 32.1623 18.8697 32.4756 18.1133 32.504C17.3569 32.5323 16.6178 32.2737 16.044 31.78L15.879 31.6285L4.23303 19.942C2.63476 18.0768 1.7994 15.6771 1.89395 13.2226C1.9885 10.7681 3.00601 8.43974 4.74303 6.70301ZM6.86403 8.82401C5.63739 10.051 4.93031 11.7032 4.88953 13.4377C4.84875 15.1722 5.47741 16.8557 6.64503 18.139L6.86403 18.37L18.0015 29.5075L25.956 21.5515L20.6535 16.249L19.0635 17.839C18.6457 18.257 18.1497 18.5886 17.6037 18.8149C17.0578 19.0412 16.4726 19.1578 15.8816 19.1579C14.688 19.1582 13.5432 18.6843 12.699 17.8405C11.8548 16.9967 11.3804 15.8521 11.3801 14.6586C11.3799 13.465 11.8537 12.3202 12.6975 11.476L15.8505 8.32151C14.5957 7.32008 13.0251 6.79855 11.4206 6.8505C9.81597 6.90246 8.28241 7.5245 7.09503 8.60501L6.86403 8.82401ZM19.593 13.066C19.8743 12.7848 20.2558 12.6268 20.6535 12.6268C21.0513 12.6268 21.4327 12.7848 21.714 13.066L28.077 19.429L29.139 18.37C30.3862 17.1237 31.0962 15.4389 31.1173 13.6759C31.1383 11.9128 30.4687 10.2115 29.2516 8.93585C28.0345 7.66015 26.3665 6.91132 24.6044 6.84949C22.8424 6.78767 21.126 7.41776 19.8225 8.60501L19.593 8.82401L14.82 13.597C14.56 13.8568 14.4045 14.2031 14.3829 14.57C14.3614 14.9369 14.4753 15.299 14.703 15.5875L14.82 15.718C15.0799 15.978 15.4261 16.1336 15.793 16.1551C16.16 16.1767 16.522 16.0628 16.8105 15.835L16.941 15.718L19.593 13.066Z" fill="#6435A5" fill-opacity="0.5"/>
</g>
<defs>
<clipPath id="clip0_85_699">
<rect width="36" height="36" fill="white"/>
</clipPath>
</defs>
</svg>
