<svg width="36" height="36" viewBox="0 0 36 36" fill="none" xmlns="http://www.w3.org/2000/svg">
<g clip-path="url(#clip0_85_693)">
<path d="M6 33C6 29.8174 7.26428 26.7652 9.51472 24.5147C11.7652 22.2643 14.8174 21 18 21C21.1826 21 24.2348 22.2643 26.4853 24.5147C28.7357 26.7652 30 29.8174 30 33H6ZM19.5 24.1245V30H26.4885C25.9523 28.4871 25.0218 27.1448 23.7932 26.1119C22.5646 25.079 21.0825 24.3929 19.5 24.1245ZM16.5 30V24.1245C14.9175 24.3929 13.4354 25.079 12.2068 26.1119C10.9782 27.1448 10.0477 28.4871 9.5115 30H16.5ZM18 19.5C13.0275 19.5 9 15.4725 9 10.5C9 5.5275 13.0275 1.5 18 1.5C22.9725 1.5 27 5.5275 27 10.5C27 15.4725 22.9725 19.5 18 19.5ZM18 16.5C21.315 16.5 24 13.815 24 10.5C24 7.185 21.315 4.5 18 4.5C14.685 4.5 12 7.185 12 10.5C12 13.815 14.685 16.5 18 16.5Z" fill="#6435A5" fill-opacity="0.5"/>
</g>
<defs>
<clipPath id="clip0_85_693">
<rect width="36" height="36" fill="white"/>
</clipPath>
</defs>
</svg>
