<svg width="36" height="36" viewBox="0 0 36 36" fill="none" xmlns="http://www.w3.org/2000/svg">
<g clip-path="url(#clip0_85_725)">
<path d="M24 30V6H6V28.5C6 28.8978 6.15804 29.2794 6.43934 29.5607C6.72064 29.842 7.10218 30 7.5 30H24ZM28.5 33H7.5C6.30653 33 5.16193 32.5259 4.31802 31.682C3.47411 30.8381 3 29.6935 3 28.5V4.5C3 4.10218 3.15804 3.72064 3.43934 3.43934C3.72064 3.15804 4.10218 3 4.5 3H25.5C25.8978 3 26.2794 3.15804 26.5607 3.43934C26.842 3.72064 27 4.10218 27 4.5V15H33V28.5C33 29.6935 32.5259 30.8381 31.682 31.682C30.8381 32.5259 29.6935 33 28.5 33ZM27 18V28.5C27 28.8978 27.158 29.2794 27.4393 29.5607C27.7206 29.842 28.1022 30 28.5 30C28.8978 30 29.2794 29.842 29.5607 29.5607C29.842 29.2794 30 28.8978 30 28.5V18H27ZM9 9H18V18H9V9ZM12 12V15H15V12H12ZM9 19.5H21V22.5H9V19.5ZM9 24H21V27H9V24Z" fill="#6435A5" fill-opacity="0.5"/>
</g>
<defs>
<clipPath id="clip0_85_725">
<rect width="36" height="36" fill="white"/>
</clipPath>
</defs>
</svg>
