<svg width="36" height="36" viewBox="0 0 36 36" fill="none" xmlns="http://www.w3.org/2000/svg">
<g clip-path="url(#clip0_85_737)">
<path d="M33 21H30V10.857L18.108 21.507L6 10.824V28.5H21V31.5H4.5C4.10218 31.5 3.72064 31.342 3.43934 31.0607C3.15804 30.7794 3 30.3978 3 30V6C3 5.60218 3.15804 5.22064 3.43934 4.93934C3.72064 4.65804 4.10218 4.5 4.5 4.5H31.5C31.8978 4.5 32.2794 4.65804 32.5607 4.93934C32.842 5.22064 33 5.60218 33 6V21ZM6.7665 7.5L18.0915 17.493L29.253 7.5H6.7665ZM28.5 33L23.196 27.696L25.3185 25.575L28.5 28.758L33.804 23.454L35.925 25.575L28.5 33Z" fill="#6435A5" fill-opacity="0.5"/>
</g>
<defs>
<clipPath id="clip0_85_737">
<rect width="36" height="36" fill="white"/>
</clipPath>
</defs>
</svg>
