<svg width="36" height="36" viewBox="0 0 36 36" fill="none" xmlns="http://www.w3.org/2000/svg">
<g clip-path="url(#clip0_85_749)">
<path d="M10.9365 31.236L3.00002 33L4.76402 25.0635C3.60231 22.8906 2.99631 20.464 3.00002 18C3.00002 9.7155 9.71552 3 18 3C26.2845 3 33 9.7155 33 18C33 26.2845 26.2845 33 18 33C15.536 33.0037 13.1094 32.3977 10.9365 31.236V31.236ZM11.3715 28.0665L12.351 28.5915C14.0888 29.5202 16.0296 30.0041 18 30C20.3734 30 22.6935 29.2962 24.6669 27.9776C26.6402 26.6591 28.1783 24.7849 29.0866 22.5922C29.9948 20.3995 30.2325 17.9867 29.7694 15.6589C29.3064 13.3311 28.1635 11.1929 26.4853 9.51472C24.8071 7.83649 22.6689 6.6936 20.3411 6.23058C18.0133 5.76755 15.6005 6.00519 13.4078 6.91345C11.2151 7.8217 9.34096 9.35977 8.02238 11.3332C6.7038 13.3065 6.00002 15.6266 6.00002 18C6.00002 20.001 6.48752 21.927 7.41002 23.649L7.93352 24.6285L6.95102 29.049L11.3715 28.0665V28.0665ZM10.5 18H13.5C13.5 19.1935 13.9741 20.3381 14.818 21.182C15.6619 22.0259 16.8065 22.5 18 22.5C19.1935 22.5 20.3381 22.0259 21.182 21.182C22.0259 20.3381 22.5 19.1935 22.5 18H25.5C25.5 19.9891 24.7098 21.8968 23.3033 23.3033C21.8968 24.7098 19.9891 25.5 18 25.5C16.0109 25.5 14.1032 24.7098 12.6967 23.3033C11.2902 21.8968 10.5 19.9891 10.5 18V18Z" fill="#6435A5" fill-opacity="0.5"/>
</g>
<defs>
<clipPath id="clip0_85_749">
<rect width="36" height="36" fill="white"/>
</clipPath>
</defs>
</svg>
