<svg width="18" height="24" viewBox="0 0 18 24" fill="none" xmlns="http://www.w3.org/2000/svg">
<g clip-path="url(#clip0_376_2014)">
<path d="M11.796 9.83058L10.7355 8.50496L3.75 17.2368V18.5625H4.8105L11.796 9.83058ZM12.8565 8.50496L13.917 7.17933L12.8565 5.85371L11.796 7.17933L12.8565 8.50496ZM5.4315 20.4375H2.25V16.4596L12.3263 3.86433C12.4669 3.68858 12.6576 3.58984 12.8565 3.58984C13.0554 3.58984 13.2461 3.68858 13.3868 3.86433L15.5085 6.51652C15.6491 6.69233 15.7281 6.93074 15.7281 7.17933C15.7281 7.42792 15.6491 7.66634 15.5085 7.84214L5.43225 20.4375H5.4315Z" fill="white"/>
</g>
<defs>
<clipPath id="clip0_376_2014">
<rect width="18" height="22.5" fill="white" transform="translate(0 0.75)"/>
</clipPath>
</defs>
</svg>
