<svg width="18" height="24" viewBox="0 0 18 24" fill="none" xmlns="http://www.w3.org/2000/svg">
<g clip-path="url(#clip0_376_2002)">
<path d="M9 21.375C4.85775 21.375 1.5 17.1778 1.5 12C1.5 6.82219 4.85775 2.625 9 2.625C13.1423 2.625 16.5 6.82219 16.5 12C16.5 17.1778 13.1423 21.375 9 21.375ZM7.2825 19.1878C6.54256 17.2259 6.1139 15.1033 6.02025 12.9375H3.0465C3.19244 14.3802 3.67044 15.7389 4.42243 16.8485C5.17441 17.958 6.16801 18.7707 7.2825 19.1878ZM7.5225 12.9375C7.63575 15.2241 8.1585 17.3719 9 19.2675C9.86424 17.3218 10.3691 15.1589 10.4775 12.9375H7.5225ZM14.9535 12.9375H11.9797C11.8861 15.1033 11.4574 17.2259 10.7175 19.1878C11.832 18.7707 12.8256 17.958 13.5776 16.8485C14.3296 15.7389 14.8076 14.3802 14.9535 12.9375ZM3.0465 11.0625H6.02025C6.1139 8.89667 6.54256 6.77408 7.2825 4.81219C6.16801 5.22926 5.17441 6.04196 4.42243 7.15153C3.67044 8.2611 3.19244 9.61978 3.0465 11.0625ZM7.52325 11.0625H10.4767C10.3686 8.84119 9.86398 6.67831 9 4.7325C8.13576 6.67823 7.63092 8.84111 7.5225 11.0625H7.52325ZM10.7175 4.81219C11.4574 6.77408 11.8861 8.89667 11.9797 11.0625H14.9535C14.8076 9.61978 14.3296 8.2611 13.5776 7.15153C12.8256 6.04196 11.832 5.22926 10.7175 4.81219Z" fill="white"/>
</g>
<defs>
<clipPath id="clip0_376_2002">
<rect width="18" height="22.5" fill="white" transform="translate(0 0.75)"/>
</clipPath>
</defs>
</svg>
