<svg width="18" height="18" viewBox="0 0 18 18" fill="none" xmlns="http://www.w3.org/2000/svg">
<g clip-path="url(#clip0_150_2046)">
<path d="M4.75728 10.9658L2.63629 13.0875L5.28754 15.7388L15.3638 5.66254L12.7125 3.01128L11.121 4.60204L12.1823 5.66254L11.121 6.72303L10.0605 5.66254L8.46979 7.25403L10.0605 8.84403L9.00003 9.90603L7.40928 8.31528L5.81778 9.90603L6.87903 10.9665L5.81778 12.0278L4.75728 10.9665V10.9658ZM13.2428 1.41979L16.9553 5.13228C17.0959 5.27293 17.1749 5.46366 17.1749 5.66254C17.1749 5.86141 17.0959 6.05214 16.9553 6.19278L5.81778 17.3303C5.67714 17.4709 5.48641 17.5499 5.28754 17.5499C5.08866 17.5499 4.89793 17.4709 4.75728 17.3303L1.04479 13.6178C0.904182 13.4771 0.825195 13.2864 0.825195 13.0875C0.825195 12.8887 0.904182 12.6979 1.04479 12.5573L12.1823 1.41979C12.3229 1.27918 12.5137 1.2002 12.7125 1.2002C12.9114 1.2002 13.1021 1.27918 13.2428 1.41979Z" fill="#8A8996"/>
</g>
<defs>
<clipPath id="clip0_150_2046">
<rect width="18" height="18" fill="white"/>
</clipPath>
</defs>
</svg>
