<svg width="28" height="26" viewBox="0 0 28 26" fill="none" xmlns="http://www.w3.org/2000/svg">
<path d="M24.25 15.75V19.5H28V22H24.25V25.75H21.75V22H18V19.5H21.75V15.75H24.25ZM24.26 0.75C24.945 0.75 25.5 1.30625 25.5 1.99125V13.25H23V3.25H3V20.7488L15.5 8.25L19.25 12V15.5363L15.5 11.7863L6.53375 20.75H15.5V23.25H1.74C1.41102 23.2497 1.09562 23.1187 0.863112 22.886C0.630603 22.6533 0.5 22.3377 0.5 22.0088V1.99125C0.502288 1.66297 0.633625 1.34877 0.865641 1.11652C1.09766 0.884272 1.41173 0.752618 1.74 0.75H24.26ZM8 5.75C8.66304 5.75 9.29893 6.01339 9.76777 6.48223C10.2366 6.95107 10.5 7.58696 10.5 8.25C10.5 8.91304 10.2366 9.54893 9.76777 10.0178C9.29893 10.4866 8.66304 10.75 8 10.75C7.33696 10.75 6.70107 10.4866 6.23223 10.0178C5.76339 9.54893 5.5 8.91304 5.5 8.25C5.5 7.58696 5.76339 6.95107 6.23223 6.48223C6.70107 6.01339 7.33696 5.75 8 5.75Z" fill="#6435A5"/>
</svg>
