<?xml version="1.0" standalone="no"?>
<!DOCTYPE svg PUBLIC "-//W3C//DTD SVG 20010904//EN"
 "http://www.w3.org/TR/2001/REC-SVG-20010904/DTD/svg10.dtd">
<svg version="1.0" xmlns="http://www.w3.org/2000/svg"
 width="512.000000pt" height="512.000000pt" viewBox="0 0 512.000000 512.000000"
 preserveAspectRatio="xMidYMid meet">

<g transform="translate(0.000000,512.000000) scale(0.100000,-0.100000)"
fill="#000000" stroke="none">
<path d="M2524 4729 c-22 -6 -352 -311 -1077 -994 -865 -814 -1048 -991 -1056
-1020 -18 -65 16 -129 82 -154 18 -7 131 -11 297 -11 l270 0 2 -1038 c3 -972
4 -1040 21 -1065 9 -15 29 -35 44 -44 26 -17 108 -18 1453 -18 1345 0 1427 1
1453 18 15 9 35 29 44 44 17 25 18 93 21 1065 l2 1038 273 0 c298 0 317 3 360
62 22 30 26 92 8 126 -13 24 -2037 1934 -2086 1969 -38 26 -71 33 -111 22z
m899 -1109 l856 -805 -188 -5 c-159 -4 -191 -8 -215 -23 -58 -39 -56 6 -56
-1117 l0 -1030 -285 0 -285 0 0 691 c0 758 2 736 -59 772 -27 16 -81 17 -621
17 -509 0 -595 -2 -620 -15 -62 -32 -60 -6 -60 -770 l0 -695 -295 0 -295 0 0
1030 c0 1123 2 1078 -56 1117 -24 15 -56 19 -215 23 l-187 5 857 807 c471 444
859 806 863 805 3 -1 391 -364 861 -807z m-425 -2367 l2 -613 -430 0 -430 0 0
615 0 615 428 -2 427 -3 3 -612z"/>
</g>
</svg>
